<?xml version="1.0" encoding="utf-8"?>
<!-- Generator: Adobe Illustrator 26.0.2, SVG Export Plug-In . SVG Version: 6.00 Build 0)  -->
<svg version="1.1" id="Layer_2" xmlns="http://www.w3.org/2000/svg" xmlns:xlink="http://www.w3.org/1999/xlink" x="0px" y="0px"
	 viewBox="0 0 283.5 64.9" style="enable-background:new 0 0 283.5 64.9;" xml:space="preserve">
<style type="text/css">
	.st0{fill:#176FA2;}
	.st1{fill:#828282;}
	.st2{fill:#2280A7;}
	.st3{fill:#5A5A5A;}
	.st4{fill:#269DBC;}
</style>
<g>
	<path class="st0" d="M37.6,60.5c-1.5-1-2.8-2.1-3.8-3.5H17.5c-3.2,0-5.4-0.9-6.7-2.7c-1.3-1.8-1.9-4.8-1.9-9.1V2.5
		C8.8,0.8,7.4,0,4.4,0C1.5,0,0,0.8,0,2.5v42.7c0,6.9,1.3,11.8,4,14.9c2.7,3.1,7.2,4.6,13.5,4.6h37c0.1,0,0.1,0,0.2,0
		C47.6,64.6,41.9,63.2,37.6,60.5z"/>
	<g>
		<path class="st1" d="M127,61.3v2.2c0,1-0.8,1.4-2.5,1.4c-1.7,0-2.5-0.5-2.5-1.4v-2.2c0-1,0.8-1.4,2.5-1.4
			C126.1,59.9,127,60.3,127,61.3z"/>
		<path class="st1" d="M135.7,28.1v28.9c0,1.3,0.3,2.4,0.9,3.5c0.6,1.1,0.9,1.7,0.9,1.7c0,0.5-0.4,1-1.1,1.5
			c-0.8,0.5-1.4,0.8-1.9,0.8c-0.8,0-1.6-0.7-2.4-2.2c-0.8-1.4-1.1-3-1.1-4.8V28.1c0-0.9,0.8-1.4,2.4-1.4
			C134.9,26.8,135.7,27.2,135.7,28.1z"/>
		<path class="st1" d="M167.7,39.1v16.5c0,3.3-1.2,5.7-3.5,7.2c-2.4,1.5-5.5,2.2-9.4,2.2c-3.9,0-7-0.7-9.3-2.2
			c-2.3-1.5-3.5-3.9-3.5-7.2V39.1c0-0.9,0.8-1.4,2.4-1.4c1.6,0,2.4,0.5,2.4,1.4v17.1c0,3.1,2.7,4.6,8.1,4.6c5.4,0,8.1-1.5,8.1-4.6
			V39.1c0-0.9,0.8-1.4,2.4-1.4S167.7,38.1,167.7,39.1z"/>
	</g>
	<path class="st2" d="M80.4,31.7v15c0,6.3-2.3,10.9-6.8,13.8c-4.5,2.9-10.5,4.3-18,4.3c-7.5,0-13.5-1.4-18-4.3
		c-4.5-2.9-6.8-7.5-6.8-13.8v-15c0-6.3,2.3-10.9,6.8-13.8c4.5-2.9,10.5-4.3,18-4.3c7.5,0,13.5,1.4,18,4.3
		C78.1,20.7,80.4,25.3,80.4,31.7z M71.2,47.8V30.5c0-6-5.2-8.9-15.6-8.9s-15.6,3-15.6,8.9v17.3c0,6,5.2,8.9,15.6,8.9
		S71.2,53.8,71.2,47.8z"/>
	<g>
		<rect x="175.1" y="13.5" class="st3" width="0.9" height="51.4"/>
		<g>
			<path class="st3" d="M183.7,24.7V13.6h1.5v9.8h5.5v1.3H183.7z"/>
			<path class="st3" d="M198.6,22.1l1.4,0.2c-0.2,0.8-0.6,1.5-1.2,1.9s-1.4,0.7-2.3,0.7c-1.2,0-2.1-0.4-2.8-1.1c-0.7-0.7-1-1.7-1-3
				c0-1.4,0.3-2.4,1-3.1c0.7-0.7,1.6-1.1,2.7-1.1c1.1,0,2,0.4,2.6,1.1c0.7,0.7,1,1.8,1,3.1c0,0.1,0,0.2,0,0.4h-6
				c0.1,0.9,0.3,1.6,0.7,2c0.4,0.5,1,0.7,1.7,0.7c0.5,0,0.9-0.1,1.3-0.4C198.1,23.1,198.4,22.7,198.6,22.1z M194.1,19.9h4.5
				c-0.1-0.7-0.2-1.2-0.5-1.5c-0.4-0.5-1-0.8-1.7-0.8c-0.6,0-1.2,0.2-1.6,0.6C194.4,18.6,194.2,19.2,194.1,19.9z M194.2,15.1v-1.6
				h1.4v1.6H194.2z M197,15.1v-1.6h1.4v1.6H197z"/>
			<path class="st3" d="M205.5,23.4l0.2,1.2c-0.4,0.1-0.7,0.1-1,0.1c-0.5,0-0.9-0.1-1.1-0.2c-0.3-0.2-0.5-0.4-0.6-0.6
				c-0.1-0.3-0.2-0.8-0.2-1.6v-4.6h-1v-1.1h1v-2l1.4-0.8v2.8h1.4v1.1h-1.4v4.7c0,0.4,0,0.6,0.1,0.7c0,0.1,0.1,0.2,0.2,0.3
				c0.1,0.1,0.3,0.1,0.5,0.1C205.1,23.5,205.3,23.5,205.5,23.4z"/>
			<path class="st3" d="M207,24.7v-1.1l5.1-5.9c-0.6,0-1.1,0-1.5,0h-3.3v-1.1h6.6v0.9l-4.3,5.1l-0.8,0.9c0.6,0,1.2-0.1,1.7-0.1h3.7
				v1.2H207z"/>
			<path class="st3" d="M221.8,22.1l1.4,0.2c-0.2,0.8-0.6,1.5-1.2,1.9c-0.6,0.5-1.4,0.7-2.3,0.7c-1.2,0-2.1-0.4-2.8-1.1
				c-0.7-0.7-1-1.7-1-3c0-1.4,0.3-2.4,1-3.1c0.7-0.7,1.6-1.1,2.7-1.1c1.1,0,2,0.4,2.6,1.1c0.7,0.7,1,1.8,1,3.1c0,0.1,0,0.2,0,0.4h-6
				c0.1,0.9,0.3,1.6,0.7,2c0.4,0.5,1,0.7,1.7,0.7c0.5,0,0.9-0.1,1.3-0.4C221.3,23.1,221.6,22.7,221.8,22.1z M217.3,19.9h4.5
				c-0.1-0.7-0.2-1.2-0.5-1.5c-0.4-0.5-1-0.8-1.7-0.8c-0.6,0-1.2,0.2-1.6,0.6C217.6,18.6,217.4,19.2,217.3,19.9z"/>
			<path class="st3" d="M227,24.7h-1.3V13.6h1.4v4c0.6-0.7,1.3-1.1,2.2-1.1c0.5,0,1,0.1,1.4,0.3c0.4,0.2,0.8,0.5,1.1,0.8
				c0.3,0.4,0.5,0.8,0.7,1.3c0.2,0.5,0.2,1.1,0.2,1.6c0,1.4-0.3,2.4-1,3.2c-0.7,0.8-1.5,1.1-2.5,1.1c-0.9,0-1.7-0.4-2.2-1.2V24.7z
				 M227,20.6c0,1,0.1,1.7,0.4,2.1c0.4,0.7,1,1.1,1.7,1.1c0.6,0,1.1-0.3,1.5-0.8c0.4-0.5,0.7-1.3,0.7-2.3c0-1-0.2-1.8-0.6-2.3
				c-0.4-0.5-0.9-0.7-1.5-0.7c-0.6,0-1.1,0.3-1.5,0.8S227,19.6,227,20.6z"/>
			<path class="st3" d="M240.5,24.7v-1.2c-0.6,0.9-1.5,1.4-2.5,1.4c-0.5,0-0.9-0.1-1.3-0.3c-0.4-0.2-0.7-0.4-0.9-0.7
				c-0.2-0.3-0.3-0.6-0.4-1c-0.1-0.3-0.1-0.7-0.1-1.3v-5h1.4v4.5c0,0.7,0,1.2,0.1,1.4c0.1,0.4,0.3,0.6,0.5,0.8
				c0.3,0.2,0.6,0.3,1,0.3c0.4,0,0.8-0.1,1.1-0.3c0.4-0.2,0.6-0.5,0.8-0.9c0.1-0.4,0.2-0.9,0.2-1.6v-4.3h1.4v8H240.5z"/>
			<path class="st3" d="M250.2,22.1l1.4,0.2c-0.2,0.8-0.6,1.5-1.2,1.9c-0.6,0.5-1.4,0.7-2.3,0.7c-1.2,0-2.1-0.4-2.8-1.1
				c-0.7-0.7-1-1.7-1-3c0-1.4,0.3-2.4,1-3.1c0.7-0.7,1.6-1.1,2.7-1.1c1.1,0,2,0.4,2.6,1.1c0.7,0.7,1,1.8,1,3.1c0,0.1,0,0.2,0,0.4h-6
				c0.1,0.9,0.3,1.6,0.7,2c0.4,0.5,1,0.7,1.7,0.7c0.5,0,0.9-0.1,1.3-0.4C249.7,23.1,250,22.7,250.2,22.1z M245.7,19.9h4.5
				c-0.1-0.7-0.2-1.2-0.5-1.5c-0.4-0.5-1-0.8-1.7-0.8c-0.6,0-1.2,0.2-1.6,0.6C246,18.6,245.8,19.2,245.7,19.9z"/>
			<path class="st3" d="M254.2,24.7v-8h1.2v1.2c0.3-0.6,0.6-0.9,0.9-1.1c0.3-0.2,0.6-0.3,0.9-0.3c0.5,0,0.9,0.1,1.4,0.4l-0.5,1.3
				c-0.3-0.2-0.7-0.3-1-0.3c-0.3,0-0.6,0.1-0.8,0.3c-0.2,0.2-0.4,0.4-0.5,0.7c-0.2,0.5-0.2,1-0.2,1.6v4.2H254.2z"/>
			<path class="st3" d="M259.9,25.3l1.3,0.2c0.1,0.4,0.2,0.7,0.5,0.9c0.3,0.3,0.8,0.4,1.4,0.4c0.6,0,1.1-0.1,1.5-0.4
				c0.3-0.3,0.6-0.6,0.7-1.1c0.1-0.3,0.1-0.9,0.1-1.7c-0.6,0.7-1.3,1.1-2.2,1.1c-1.1,0-2-0.4-2.6-1.2c-0.6-0.8-0.9-1.8-0.9-2.9
				c0-0.8,0.1-1.5,0.4-2.1c0.3-0.6,0.7-1.1,1.2-1.5c0.5-0.4,1.1-0.5,1.9-0.5c0.9,0,1.7,0.4,2.3,1.1v-1h1.3v6.9
				c0,1.3-0.1,2.1-0.4,2.7c-0.3,0.5-0.7,0.9-1.2,1.2s-1.2,0.5-2,0.5c-1,0-1.7-0.2-2.3-0.6C260.2,26.8,259.9,26.2,259.9,25.3z
				 M261.1,20.5c0,1.1,0.2,1.8,0.6,2.3c0.4,0.5,0.9,0.7,1.6,0.7c0.6,0,1.1-0.2,1.6-0.7c0.4-0.5,0.6-1.2,0.6-2.3c0-1-0.2-1.7-0.7-2.2
				c-0.4-0.5-1-0.7-1.6-0.7c-0.6,0-1.1,0.2-1.5,0.7S261.1,19.5,261.1,20.5z"/>
			<path class="st3" d="M275.2,22.1l1.4,0.2c-0.2,0.8-0.6,1.5-1.2,1.9c-0.6,0.5-1.4,0.7-2.3,0.7c-1.2,0-2.1-0.4-2.8-1.1
				c-0.7-0.7-1-1.7-1-3c0-1.4,0.3-2.4,1-3.1c0.7-0.7,1.6-1.1,2.7-1.1c1.1,0,2,0.4,2.6,1.1c0.7,0.7,1,1.8,1,3.1c0,0.1,0,0.2,0,0.4h-6
				c0.1,0.9,0.3,1.6,0.7,2c0.4,0.5,1,0.7,1.7,0.7c0.5,0,0.9-0.1,1.3-0.4C274.7,23.1,275,22.7,275.2,22.1z M270.7,19.9h4.5
				c-0.1-0.7-0.2-1.2-0.5-1.5c-0.4-0.5-1-0.8-1.7-0.8c-0.6,0-1.2,0.2-1.6,0.6C271,18.6,270.7,19.2,270.7,19.9z"/>
			<path class="st3" d="M279.1,24.7v-8h1.2v1.2c0.3-0.6,0.6-0.9,0.9-1.1c0.3-0.2,0.6-0.3,0.9-0.3c0.5,0,0.9,0.1,1.4,0.4l-0.5,1.3
				c-0.3-0.2-0.7-0.3-1-0.3c-0.3,0-0.6,0.1-0.8,0.3c-0.2,0.2-0.4,0.4-0.5,0.7c-0.2,0.5-0.2,1-0.2,1.6v4.2H279.1z"/>
			<path class="st3" d="M183.4,39.3c0-1.8,0.5-3.3,1.5-4.3c1-1,2.3-1.6,3.8-1.6c1,0,1.9,0.2,2.8,0.7s1.4,1.2,1.9,2
				c0.4,0.9,0.6,1.9,0.6,3c0,1.1-0.2,2.1-0.7,3s-1.1,1.6-1.9,2c-0.8,0.5-1.7,0.7-2.7,0.7c-1,0-2-0.3-2.8-0.8s-1.4-1.2-1.9-2.1
				C183.6,41.2,183.4,40.2,183.4,39.3z M184.9,39.3c0,1.3,0.4,2.4,1.1,3.2c0.7,0.8,1.6,1.2,2.7,1.2c1.1,0,2-0.4,2.7-1.2
				c0.7-0.8,1.1-1.9,1.1-3.3c0-0.9-0.2-1.7-0.5-2.4s-0.8-1.2-1.3-1.6s-1.2-0.6-2-0.6c-1,0-1.9,0.4-2.7,1.1
				C185.2,36.4,184.9,37.6,184.9,39.3z"/>
			<path class="st3" d="M196.5,44.7v-8h1.2v1.1c0.6-0.9,1.4-1.3,2.6-1.3c0.5,0,0.9,0.1,1.3,0.3c0.4,0.2,0.7,0.4,0.9,0.7
				s0.3,0.6,0.4,1c0.1,0.3,0.1,0.7,0.1,1.3v4.9h-1.4v-4.9c0-0.6-0.1-1-0.2-1.2c-0.1-0.3-0.3-0.5-0.6-0.7s-0.6-0.2-0.9-0.2
				c-0.6,0-1.1,0.2-1.5,0.6c-0.4,0.4-0.6,1.1-0.6,2.1v4.4H196.5z"/>
			<path class="st3" d="M206,44.7V33.6h1.4v11.1H206z"/>
			<path class="st3" d="M210.3,35.1v-1.6h1.4v1.6H210.3z M210.3,44.7v-8h1.4v8H210.3z"/>
			<path class="st3" d="M214.6,44.7v-8h1.2v1.1c0.6-0.9,1.4-1.3,2.6-1.3c0.5,0,0.9,0.1,1.3,0.3c0.4,0.2,0.7,0.4,0.9,0.7
				s0.3,0.6,0.4,1c0.1,0.3,0.1,0.7,0.1,1.3v4.9h-1.4v-4.9c0-0.6-0.1-1-0.2-1.2c-0.1-0.3-0.3-0.5-0.6-0.7s-0.6-0.2-0.9-0.2
				c-0.6,0-1.1,0.2-1.5,0.6c-0.4,0.4-0.6,1.1-0.6,2.1v4.4H214.6z"/>
			<path class="st3" d="M229.6,42.1l1.4,0.2c-0.2,0.8-0.6,1.5-1.2,1.9c-0.6,0.5-1.4,0.7-2.3,0.7c-1.2,0-2.1-0.4-2.8-1.1s-1-1.7-1-3
				c0-1.4,0.3-2.4,1-3.1s1.6-1.1,2.7-1.1c1.1,0,2,0.4,2.6,1.1c0.7,0.7,1,1.8,1,3.1c0,0.1,0,0.2,0,0.4h-6c0.1,0.9,0.3,1.6,0.7,2
				c0.4,0.5,1,0.7,1.7,0.7c0.5,0,0.9-0.1,1.3-0.4S229.3,42.7,229.6,42.1z M225.1,39.9h4.5c-0.1-0.7-0.2-1.2-0.5-1.5
				c-0.4-0.5-1-0.8-1.7-0.8c-0.6,0-1.2,0.2-1.6,0.6C225.4,38.6,225.1,39.2,225.1,39.9z"/>
			<path class="st3" d="M183.8,64.7V53.6h3.8c0.9,0,1.5,0.1,2,0.2c0.6,0.1,1.2,0.4,1.6,0.8c0.6,0.5,1,1.1,1.3,1.9s0.4,1.6,0.4,2.6
				c0,0.8-0.1,1.6-0.3,2.2c-0.2,0.7-0.4,1.2-0.8,1.6s-0.6,0.8-1,1c-0.4,0.2-0.8,0.4-1.3,0.6c-0.5,0.1-1.1,0.2-1.8,0.2H183.8z
				 M185.3,63.4h2.4c0.7,0,1.3-0.1,1.7-0.2c0.4-0.1,0.7-0.3,1-0.6c0.3-0.3,0.6-0.8,0.8-1.4c0.2-0.6,0.3-1.3,0.3-2.1
				c0-1.2-0.2-2.1-0.6-2.7s-0.8-1-1.4-1.3c-0.4-0.2-1-0.2-1.9-0.2h-2.3V63.4z"/>
			<path class="st3" d="M195.7,55.2v-1.6h1.4v1.6H195.7z M195.7,64.7v-8h1.4v8H195.7z"/>
			<path class="st3" d="M205.2,61.7l1.3,0.2c-0.1,0.9-0.5,1.6-1.1,2.2c-0.6,0.5-1.3,0.8-2.2,0.8c-1.1,0-2-0.4-2.7-1.1
				c-0.7-0.7-1-1.7-1-3.1c0-0.9,0.1-1.6,0.4-2.3c0.3-0.7,0.7-1.1,1.3-1.5c0.6-0.3,1.2-0.5,1.9-0.5c0.9,0,1.6,0.2,2.1,0.7
				c0.6,0.4,0.9,1.1,1.1,1.9l-1.3,0.2c-0.1-0.5-0.3-0.9-0.7-1.2c-0.3-0.3-0.7-0.4-1.2-0.4c-0.7,0-1.2,0.2-1.7,0.7s-0.6,1.3-0.6,2.3
				c0,1.1,0.2,1.9,0.6,2.4s1,0.7,1.6,0.7c0.5,0,1-0.2,1.3-0.5C204.9,62.9,205.1,62.4,205.2,61.7z"/>
			<path class="st3" d="M211.5,63.5l0.2,1.2c-0.4,0.1-0.7,0.1-1,0.1c-0.5,0-0.9-0.1-1.1-0.2c-0.3-0.2-0.5-0.4-0.6-0.6
				c-0.1-0.3-0.2-0.8-0.2-1.6v-4.6h-1v-1.1h1v-2l1.4-0.8v2.8h1.4v1.1h-1.4v4.7c0,0.4,0,0.6,0.1,0.7c0,0.1,0.1,0.2,0.2,0.3
				c0.1,0.1,0.3,0.1,0.5,0.1C211.1,63.5,211.3,63.5,211.5,63.5z"/>
			<path class="st3" d="M213.7,55.2v-1.6h1.4v1.6H213.7z M213.7,64.7v-8h1.4v8H213.7z"/>
			<path class="st3" d="M217.5,60.7c0-1.5,0.4-2.6,1.2-3.3c0.7-0.6,1.5-0.9,2.5-0.9c1.1,0,2,0.4,2.7,1.1s1.1,1.7,1.1,3
				c0,1-0.2,1.8-0.5,2.4c-0.3,0.6-0.8,1.1-1.4,1.4c-0.6,0.3-1.2,0.5-1.9,0.5c-1.1,0-2-0.4-2.7-1.1C217.9,63.1,217.5,62,217.5,60.7z
				 M218.9,60.7c0,1,0.2,1.8,0.7,2.3c0.4,0.5,1,0.8,1.7,0.8c0.7,0,1.2-0.3,1.7-0.8s0.7-1.3,0.7-2.4c0-1-0.2-1.7-0.7-2.3
				c-0.5-0.5-1-0.8-1.7-0.8c-0.7,0-1.2,0.3-1.7,0.8C219.1,58.9,218.9,59.6,218.9,60.7z"/>
			<path class="st3" d="M227.5,64.7v-8h1.2v1.1c0.6-0.9,1.4-1.3,2.6-1.3c0.5,0,0.9,0.1,1.3,0.3s0.7,0.4,0.9,0.7s0.3,0.6,0.4,1
				c0.1,0.3,0.1,0.7,0.1,1.3v4.9h-1.4v-4.9c0-0.6-0.1-1-0.2-1.2c-0.1-0.3-0.3-0.5-0.6-0.7s-0.6-0.2-0.9-0.2c-0.6,0-1.1,0.2-1.5,0.6
				c-0.4,0.4-0.6,1.1-0.6,2.1v4.4H227.5z"/>
			<path class="st3" d="M236.9,64.7v-8h1.2v1.1c0.6-0.9,1.4-1.3,2.6-1.3c0.5,0,0.9,0.1,1.3,0.3s0.7,0.4,0.9,0.7s0.3,0.6,0.4,1
				c0.1,0.3,0.1,0.7,0.1,1.3v4.9h-1.4v-4.9c0-0.6-0.1-1-0.2-1.2c-0.1-0.3-0.3-0.5-0.6-0.7s-0.6-0.2-0.9-0.2c-0.6,0-1.1,0.2-1.5,0.6
				c-0.4,0.4-0.6,1.1-0.6,2.1v4.4H236.9z"/>
			<path class="st3" d="M251.7,63.7c-0.5,0.4-1,0.7-1.5,0.9c-0.5,0.2-1,0.3-1.5,0.3c-0.9,0-1.6-0.2-2-0.6c-0.5-0.4-0.7-1-0.7-1.7
				c0-0.4,0.1-0.8,0.3-1.1s0.4-0.6,0.7-0.8s0.6-0.3,1-0.4c0.3-0.1,0.7-0.1,1.2-0.2c1.1-0.1,1.9-0.3,2.4-0.5c0-0.2,0-0.3,0-0.4
				c0-0.6-0.1-0.9-0.4-1.2c-0.3-0.3-0.9-0.5-1.6-0.5c-0.6,0-1.1,0.1-1.4,0.3s-0.5,0.6-0.7,1.2l-1.3-0.2c0.1-0.6,0.3-1,0.6-1.4
				c0.3-0.4,0.7-0.6,1.2-0.8c0.5-0.2,1.1-0.3,1.8-0.3c0.7,0,1.2,0.1,1.7,0.2s0.7,0.4,0.9,0.6c0.2,0.2,0.3,0.6,0.4,0.9
				c0,0.2,0.1,0.7,0.1,1.3v1.8c0,1.3,0,2.1,0.1,2.4c0.1,0.3,0.2,0.7,0.3,1h-1.4C251.8,64.4,251.7,64.1,251.7,63.7z M251.5,60.6
				c-0.5,0.2-1.2,0.4-2.2,0.5c-0.6,0.1-1,0.2-1.2,0.3c-0.2,0.1-0.4,0.2-0.5,0.4s-0.2,0.4-0.2,0.6c0,0.4,0.1,0.7,0.4,0.9
				c0.3,0.2,0.7,0.4,1.2,0.4c0.5,0,1-0.1,1.4-0.3c0.4-0.2,0.7-0.5,0.9-0.9c0.1-0.3,0.2-0.8,0.2-1.4V60.6z"/>
			<path class="st3" d="M255.9,55.2v-1.6h1.4v1.6H255.9z M255.9,64.7v-8h1.4v8H255.9z"/>
			<path class="st3" d="M260.2,64.7v-8h1.2v1.2c0.3-0.6,0.6-0.9,0.9-1.1c0.3-0.2,0.6-0.3,0.9-0.3c0.5,0,0.9,0.1,1.4,0.4l-0.5,1.3
				c-0.3-0.2-0.7-0.3-1-0.3c-0.3,0-0.6,0.1-0.8,0.3c-0.2,0.2-0.4,0.4-0.5,0.7c-0.2,0.5-0.2,1-0.2,1.6v4.2H260.2z"/>
			<path class="st3" d="M271.7,62.1l1.4,0.2c-0.2,0.8-0.6,1.5-1.2,1.9c-0.6,0.5-1.4,0.7-2.3,0.7c-1.2,0-2.1-0.4-2.8-1.1
				c-0.7-0.7-1-1.7-1-3c0-1.4,0.3-2.4,1-3.1c0.7-0.7,1.6-1.1,2.7-1.1c1.1,0,2,0.4,2.6,1.1s1,1.8,1,3.1c0,0.1,0,0.2,0,0.4h-6
				c0.1,0.9,0.3,1.6,0.7,2c0.4,0.5,1,0.7,1.7,0.7c0.5,0,0.9-0.1,1.3-0.4C271.2,63.1,271.5,62.7,271.7,62.1z M267.2,59.9h4.5
				c-0.1-0.7-0.2-1.2-0.5-1.5c-0.4-0.5-1-0.8-1.7-0.8c-0.6,0-1.2,0.2-1.6,0.6C267.5,58.6,267.3,59.2,267.2,59.9z"/>
		</g>
	</g>
	<path class="st4" d="M121.4,2.5v44.7c0,6.1-2.3,10.6-6.8,13.3c-4.6,2.8-10.6,4.2-18.2,4.2c-7.6,0-13.7-1.4-18.3-4.2
		c-4.6-2.8-6.9-7.2-6.9-13.3V31c0-6.1,2.3-10.6,6.8-13.3c4.6-2.8,10.6-4.2,18.2-4.2h10.1c1.5,0,2.3,1.3,2.3,3.9s-0.8,3.9-2.3,3.9
		H96.2c-10.5,0-15.8,2.9-15.8,8.6v18.5c0,5.8,5.3,8.6,15.8,8.6s15.8-2.9,15.8-8.6V2.5c0-1.7,1.5-2.5,4.6-2.5
		C119.8,0,121.4,0.8,121.4,2.5z"/>
</g>
</svg>
