<svg width="265" height="67" viewBox="0 0 265 67" fill="none" xmlns="http://www.w3.org/2000/svg">
<path d="M4.90002 66.2H0.400024V23.4C0.400024 10.9 10.6 0.700012 23.1 0.700012H27.6V43.5C27.6 56.1 17.4 66.2 4.90002 66.2Z" fill="#BF2D32"/>
<path d="M36.4 66.2H31.9V23.4C31.9 10.9 42.1 0.700012 54.6 0.700012H59.1V43.5C59.2 56.1 49 66.2 36.4 66.2Z" fill="#DB5962"/>
<path d="M83.1 66.3C94.4219 66.3 103.6 57.1218 103.6 45.8C103.6 34.4782 94.4219 25.3 83.1 25.3C71.7782 25.3 62.6 34.4782 62.6 45.8C62.6 57.1218 71.7782 66.3 83.1 66.3Z" fill="#F29CA6"/>
<path d="M118.6 40.0999V16.7H122.3V37.2H131.5V40.0999H118.6Z" fill="#1D1D1B"/>
<path d="M135.2 40.0999V16.7H138.9V37.2H148.1V40.0999H135.2Z" fill="#1D1D1B"/>
<path d="M159.9 40.4C157.7 40.4 155.8 39.9 154.3 38.9C152.7 37.9 151.5 36.4 150.7 34.6C149.9 32.8 149.5 30.6 149.5 28.3C149.6 25.7 150.1 23.5 151.1 21.8C152.1 20.1 153.4 18.7 155 17.9C156.6 17 158.5 16.6 160.5 16.6C162.6 16.6 164.4 17.1 165.9 18.1C167.4 19.1 168.6 20.5 169.5 22.3C170.4 24.1 170.7 26.2 170.7 28.6C170.6 31.2 170.2 33.4 169.2 35.2C168.3 37 167 38.3 165.4 39.2C163.7 39.8 161.9 40.3 159.9 40.4ZM160 37.5C162.1 37.5 163.7 36.7 165 35.1C166.3 33.5 166.8 31.2 166.8 28.2C166.8 26.6 166.6 25.1 166.1 23.7C165.6 22.3 164.9 21.2 163.9 20.4C162.9 19.6 161.7 19.2 160.3 19.2C159 19.2 157.9 19.5 156.8 20.2C155.7 20.9 154.9 21.9 154.2 23.2C153.6 24.6 153.2 26.3 153.2 28.4C153.2 30 153.5 31.5 154 32.9C154.5 34.3 155.3 35.4 156.3 36.2C157.2 37.1 158.5 37.5 160 37.5Z" fill="#1D1D1B"/>
<path d="M175.7 40.5C175.1 40.5 174.5 40.3 174.1 39.8C173.6 39.3 173.4 38.8 173.4 38.1C173.4 37.6 173.5 37.1 173.8 36.7C174 36.3 174.4 35.9 174.8 35.7C175.2 35.4 175.6 35.3 176.1 35.3C176.9 35.3 177.4 35.5 177.8 36C178.2 36.5 178.4 37.1 178.4 37.7C178.4 38.2 178.3 38.7 178.1 39.1C177.9 39.5 177.5 39.9 177.1 40.1C176.6 40.3 176.1 40.5 175.7 40.5Z" fill="#1D1D1B"/>
<path d="M183.2 40.0999V16.7H186.9V37.2H196.1V40.0999H183.2Z" fill="#1D1D1B"/>
<path d="M208.1 40.4C205.9 40.4 204.2 40 202.8 39.2C201.4 38.4 200.5 37.2999 199.9 35.7999C199.3 34.2999 199 32.5 199 30.4V16.7999H202.7V29.7C202.7 31.8 202.9 33.4 203.3 34.5C203.7 35.6 204.3 36.4 205.2 36.9C206 37.3 207 37.5999 208.2 37.5999C209.2 37.5999 210.2 37.4 210.9 36.9C211.6 36.4 212.2 35.7 212.6 34.5C213 33.4 213.2 31.8 213.2 29.7V16.7H216.9V30.4C216.9 33.6 216.2 36.0999 214.7 37.7999C213.3 39.4999 211.1 40.4 208.1 40.4Z" fill="#1D1D1B"/>
<path d="M119 63.5469V55.3168H120.317V62.4496H123.499V63.4372H119V63.5469Z" fill="#1D1D1B"/>
<path d="M126.901 63.6566C126.023 63.6566 125.365 63.3274 124.816 62.7787C124.377 62.2301 124.048 61.4619 124.048 60.4743C124.048 59.9257 124.158 59.377 124.377 58.8283C124.596 58.3894 124.926 57.9504 125.365 57.731C125.804 57.4018 126.242 57.292 126.901 57.292C127.23 57.292 127.45 57.292 127.779 57.4018C128.108 57.5115 128.327 57.6212 128.547 57.8407C128.766 58.0602 128.876 58.2796 129.096 58.6088C129.205 58.938 129.315 59.2672 129.315 59.5964C129.315 59.8159 129.315 60.0354 129.315 60.2549C129.315 60.4743 129.315 60.5841 129.315 60.6938H125.035L125.145 59.9257H128.218C128.218 59.5965 128.218 59.377 128.218 59.0478C128.218 58.8283 127.998 58.6088 127.888 58.3894C127.779 58.1699 127.45 58.1699 127.12 58.1699C126.791 58.1699 126.572 58.2796 126.352 58.3894C126.133 58.4991 125.913 58.8283 125.804 59.1575C125.694 59.4867 125.584 60.0354 125.694 60.6938C125.694 61.1327 125.804 61.5717 126.023 61.7911C126.242 62.0106 126.352 62.2301 126.681 62.3398C126.901 62.4495 127.23 62.5593 127.559 62.5593C127.669 62.5593 127.888 62.5593 128.108 62.5593C128.327 62.5593 128.547 62.4495 128.657 62.4495C128.766 62.4495 128.986 62.3398 129.096 62.3398L129.315 63.1079C129.205 63.2177 128.986 63.3274 128.766 63.4371C128.547 63.5469 128.327 63.5469 127.998 63.6566C127.45 63.6566 127.12 63.6566 126.901 63.6566ZM126.572 56.6336L126.023 56.1947C126.242 55.9752 126.462 55.7558 126.681 55.5363C126.901 55.3168 127.12 54.9876 127.34 54.7681C127.559 54.5487 127.779 54.2195 127.888 54L128.766 54.6584C128.657 54.7681 128.657 54.8779 128.437 55.0973C128.327 55.2071 128.108 55.4265 127.998 55.646C127.888 55.8655 127.669 55.9752 127.45 56.1947C127.23 56.4142 127.12 56.5239 127.011 56.6336C126.791 56.5239 126.681 56.6336 126.572 56.6336Z" fill="#1D1D1B"/>
<path d="M131.29 56.4141C131.071 56.4141 130.851 56.3044 130.742 56.1947C130.632 56.0849 130.522 55.8655 130.522 55.646C130.522 55.5363 130.522 55.3168 130.632 55.2071C130.742 55.0973 130.851 54.9876 130.961 54.8779C131.071 54.7681 131.29 54.7681 131.4 54.7681C131.619 54.7681 131.839 54.8779 131.949 54.9876C132.058 55.0973 132.168 55.3168 132.168 55.5363C132.168 55.7557 132.058 55.9752 131.949 56.1947C131.729 56.3044 131.51 56.4141 131.29 56.4141ZM130.742 63.5469V57.4017H132.058V63.5469H130.742Z" fill="#1D1D1B"/>
<path d="M136.338 63.6566C135.46 63.6566 134.802 63.3274 134.253 62.7788C133.814 62.2301 133.485 61.462 133.485 60.4743C133.485 59.9257 133.595 59.377 133.814 58.8283C134.034 58.2797 134.363 57.9505 134.802 57.731C135.241 57.4018 135.68 57.2921 136.338 57.2921C136.667 57.2921 136.887 57.2921 137.216 57.4018C137.435 57.5115 137.765 57.6213 137.984 57.8407C138.204 58.0602 138.313 58.2797 138.533 58.6089C138.642 58.9381 138.752 59.2673 138.752 59.5965C138.752 59.8159 138.752 60.0354 138.752 60.2549C138.752 60.4744 138.752 60.5841 138.752 60.6938H134.473L134.582 59.9257H137.655C137.655 59.5965 137.655 59.377 137.655 59.0478C137.655 58.8283 137.435 58.6089 137.326 58.3894C137.216 58.1699 136.887 58.1699 136.558 58.1699C136.228 58.1699 136.009 58.2797 135.789 58.3894C135.57 58.4991 135.35 58.8283 135.241 59.1575C135.131 59.4867 135.021 60.0354 135.131 60.6938C135.131 61.1328 135.241 61.5717 135.46 61.7912C135.68 62.0106 135.789 62.2301 136.119 62.3398C136.338 62.4496 136.667 62.5593 136.996 62.5593C137.106 62.5593 137.326 62.5593 137.545 62.5593C137.765 62.5593 137.984 62.4496 138.094 62.4496C138.204 62.4496 138.423 62.3398 138.533 62.3398L138.752 63.108C138.642 63.2177 138.423 63.3274 138.204 63.4372C137.984 63.5469 137.765 63.5469 137.435 63.6566C136.887 63.6566 136.558 63.6566 136.338 63.6566Z" fill="#1D1D1B"/>
<path d="M140.069 63.5469V57.4017H141.166L141.276 58.1699L141.386 58.6088V63.5469H140.069V63.5469ZM141.276 59.0477L141.166 58.1699C141.166 58.0601 141.386 57.9504 141.496 57.8407C141.605 57.7309 141.934 57.6212 142.154 57.5115C142.373 57.4017 142.593 57.4017 142.922 57.4017C143.032 57.4017 143.142 57.4017 143.251 57.4017C143.361 57.4017 143.471 57.4017 143.471 57.5115V58.7185C143.361 58.7185 143.361 58.6088 143.251 58.6088C143.142 58.6088 142.922 58.6088 142.703 58.6088C142.483 58.6088 142.264 58.6088 142.044 58.7185C141.825 58.8283 141.715 58.8283 141.605 58.938C141.386 58.938 141.276 58.938 141.276 59.0477Z" fill="#1D1D1B"/>
<path d="M146.543 63.5469V55.3168H147.86V62.4496H151.042V63.4372H146.543V63.5469Z" fill="#1D1D1B"/>
<path d="M154.554 63.6566C153.676 63.6566 153.018 63.3274 152.469 62.7787C152.03 62.2301 151.701 61.4619 151.701 60.4743C151.701 59.9256 151.811 59.377 152.03 58.8283C152.249 58.2796 152.579 57.9504 153.018 57.731C153.457 57.4018 153.895 57.292 154.554 57.292C154.883 57.292 155.103 57.292 155.432 57.4018C155.651 57.5115 155.98 57.6212 156.2 57.8407C156.419 58.0602 156.529 58.2796 156.749 58.6088C156.858 58.938 156.968 59.2672 156.968 59.5964C156.968 59.8159 156.968 60.0354 156.968 60.2549C156.968 60.4743 156.968 60.584 156.968 60.6938H152.688L152.798 59.9256H155.871C155.871 59.5964 155.871 59.377 155.871 59.0478C155.871 58.8283 155.651 58.6088 155.542 58.3894C155.432 58.1699 155.103 58.1699 154.773 58.1699C154.444 58.1699 154.225 58.2796 154.005 58.3894C153.786 58.4991 153.566 58.8283 153.457 59.1575C153.347 59.4867 153.237 60.0354 153.347 60.6938C153.347 61.1327 153.457 61.5717 153.676 61.7911C153.895 62.0106 154.005 62.2301 154.334 62.3398C154.554 62.4495 154.883 62.5593 155.212 62.5593C155.322 62.5593 155.542 62.5593 155.761 62.5593C155.98 62.5593 156.2 62.4495 156.31 62.4495C156.419 62.4495 156.639 62.3398 156.749 62.3398L156.968 63.1079C156.858 63.2177 156.639 63.3274 156.419 63.4371C156.2 63.5469 155.98 63.5469 155.651 63.6566C154.993 63.6566 154.773 63.6566 154.554 63.6566ZM153.237 56.4142C153.018 56.4142 152.908 56.3044 152.688 56.1947C152.469 56.0849 152.469 55.8655 152.469 55.646C152.469 55.4265 152.579 55.2071 152.688 55.0973C152.908 54.9876 153.018 54.8779 153.237 54.8779C153.457 54.8779 153.676 54.9876 153.786 55.0973C153.895 55.2071 154.005 55.4265 154.005 55.646C154.005 55.8655 153.895 56.0849 153.786 56.1947C153.566 56.3044 153.457 56.4142 153.237 56.4142ZM155.651 56.4142C155.432 56.4142 155.322 56.3044 155.103 56.1947C154.993 56.0849 154.883 55.8655 154.883 55.646C154.883 55.4265 154.993 55.2071 155.103 55.0973C155.322 54.9876 155.432 54.8779 155.651 54.8779C155.871 54.8779 156.09 54.9876 156.2 55.0973C156.31 55.2071 156.419 55.4265 156.419 55.646C156.419 55.8655 156.31 56.0849 156.2 56.1947C156.09 56.3044 155.871 56.4142 155.651 56.4142Z" fill="#1D1D1B"/>
<path d="M160.041 63.6566C159.711 63.6566 159.492 63.6566 159.272 63.5469C159.053 63.4372 158.834 63.3274 158.724 63.108C158.614 62.8885 158.504 62.5593 158.504 62.1203V58.3894H157.736V57.731C157.956 57.6212 158.175 57.6212 158.395 57.5115C158.504 57.5115 158.614 57.292 158.724 57.1823C158.724 57.0726 158.834 56.9628 158.834 56.8531C158.834 56.7434 158.943 56.6336 158.943 56.5239C158.943 56.4142 159.053 56.1947 159.053 56.085H159.821V57.5115H161.577V58.4991H159.821V61.4619C159.821 61.9009 159.821 62.1203 159.821 62.3398C159.821 62.5593 159.931 62.669 160.041 62.669C160.15 62.669 160.26 62.7788 160.48 62.7788C160.589 62.7788 160.699 62.7788 160.809 62.7788C160.919 62.7788 161.028 62.7788 161.248 62.669C161.357 62.669 161.467 62.5593 161.577 62.5593L161.796 63.3274C161.687 63.4372 161.577 63.5469 161.357 63.5469C161.138 63.6566 160.918 63.6566 160.699 63.7664C160.48 63.8761 160.26 63.6566 160.041 63.6566Z" fill="#1D1D1B"/>
<path d="M162.564 63.5469L162.345 63.1079L165.308 58.8283L165.637 58.3893H162.674V57.4017H167.064L167.283 57.9504L164.43 62.23L164.101 62.669H167.173V63.5469H162.564V63.5469Z" fill="#1D1D1B"/>
<path d="M170.795 63.6566C169.917 63.6566 169.258 63.3274 168.71 62.7788C168.271 62.2301 167.941 61.462 167.941 60.4743C167.941 59.9257 168.051 59.377 168.271 58.8283C168.49 58.2797 168.819 57.9505 169.258 57.731C169.697 57.4018 170.136 57.2921 170.795 57.2921C171.124 57.2921 171.343 57.2921 171.672 57.4018C171.892 57.5115 172.221 57.6213 172.441 57.8407C172.66 58.0602 172.77 58.2797 172.989 58.6089C173.099 58.9381 173.209 59.2673 173.209 59.5965C173.209 59.8159 173.209 60.0354 173.209 60.2549C173.209 60.4744 173.209 60.5841 173.209 60.6938H168.929L169.039 59.9257H172.111C172.111 59.5965 172.111 59.377 172.111 59.0478C172.111 58.8283 171.892 58.6089 171.782 58.3894C171.672 58.1699 171.343 58.1699 171.014 58.1699C170.685 58.1699 170.465 58.2797 170.246 58.3894C170.026 58.4991 169.807 58.8283 169.697 59.1575C169.588 59.4867 169.478 60.0354 169.588 60.6938C169.588 61.1328 169.697 61.5717 169.917 61.7912C170.136 62.0106 170.246 62.2301 170.575 62.3398C170.795 62.4496 171.124 62.5593 171.453 62.5593C171.563 62.5593 171.782 62.5593 172.002 62.5593C172.221 62.5593 172.441 62.4496 172.55 62.4496C172.66 62.4496 172.88 62.3398 172.989 62.3398L173.209 63.108C173.099 63.2177 172.88 63.3274 172.66 63.4372C172.441 63.5469 172.221 63.5469 171.892 63.6566C171.343 63.6566 171.014 63.6566 170.795 63.6566Z" fill="#1D1D1B"/>
<path d="M174.635 54.6584H175.952V57.1823V58.2796V62.669L174.635 63.2177V54.6584ZM176.83 63.6566C176.611 63.6566 176.391 63.6566 176.172 63.6566C175.952 63.6566 175.733 63.5469 175.513 63.5469C175.294 63.5469 175.074 63.4371 174.965 63.4371C174.855 63.4371 174.745 63.3274 174.635 63.3274L175.952 62.669C176.062 62.7787 176.172 62.7787 176.391 62.7787C176.611 62.7787 176.83 62.8885 177.049 62.8885C177.379 62.8885 177.598 62.7787 177.927 62.669C178.147 62.4495 178.366 62.2301 178.476 61.9009C178.586 61.5717 178.695 61.1327 178.695 60.584C178.695 59.8159 178.586 59.2672 178.366 58.938C178.147 58.6088 177.708 58.3894 177.269 58.3894C176.94 58.3894 176.72 58.3894 176.501 58.4991C176.281 58.6088 176.062 58.7186 175.952 58.8283L175.733 58.1699C175.842 58.0602 175.952 57.9504 176.062 57.8407C176.172 57.7309 176.391 57.6212 176.611 57.5115C176.83 57.4018 177.159 57.4017 177.488 57.4017C177.927 57.4017 178.366 57.5115 178.695 57.7309C179.025 57.9504 179.354 58.2796 179.573 58.7186C179.793 59.1575 179.903 59.7062 179.903 60.3646C179.903 61.023 179.793 61.5717 179.464 62.1203C179.244 62.669 178.805 62.9982 178.366 63.3274C178.037 63.5469 177.488 63.6566 176.83 63.6566Z" fill="#1D1D1B"/>
<path d="M183.195 63.6566C182.756 63.6566 182.426 63.5469 182.207 63.4372C181.987 63.3274 181.768 63.108 181.658 62.8885C181.549 62.669 181.439 62.3398 181.439 62.0106C181.439 61.6814 181.329 61.3522 181.329 60.9133V57.292H182.646V60.9133C182.646 61.3522 182.646 61.7912 182.756 62.0106C182.865 62.2301 182.975 62.3398 183.085 62.4496C183.195 62.5593 183.414 62.5593 183.743 62.5593C183.853 62.5593 184.072 62.5593 184.182 62.4496C184.292 62.3398 184.511 62.3398 184.621 62.2301C184.731 62.1204 184.841 62.1204 184.95 62.0106V57.1823H186.267V63.4372H185.718C185.499 63.4372 185.389 63.4372 185.279 63.3274C185.17 63.3274 185.17 63.108 185.17 62.9982V62.5593V62.7788C184.95 62.8885 184.841 62.9982 184.621 63.108C184.402 63.2177 184.182 63.3274 183.963 63.3274C183.633 63.6566 183.414 63.6566 183.195 63.6566Z" fill="#1D1D1B"/>
<path d="M190.547 63.6566C189.669 63.6566 189.01 63.3274 188.462 62.7788C188.023 62.2301 187.694 61.462 187.694 60.4743C187.694 59.9257 187.803 59.377 188.023 58.8283C188.242 58.2797 188.572 57.9505 189.01 57.731C189.449 57.4018 189.888 57.2921 190.547 57.2921C190.876 57.2921 191.095 57.2921 191.425 57.4018C191.644 57.5115 191.973 57.6213 192.193 57.8407C192.412 58.0602 192.522 58.2797 192.741 58.6089C192.851 58.9381 192.961 59.2673 192.961 59.5965C192.961 59.8159 192.961 60.0354 192.961 60.2549C192.961 60.4744 192.961 60.5841 192.961 60.6938H188.681L188.791 59.9257H191.864C191.864 59.5965 191.864 59.377 191.864 59.0478C191.864 58.8283 191.644 58.6089 191.534 58.3894C191.425 58.1699 191.095 58.1699 190.766 58.1699C190.437 58.1699 190.218 58.2797 189.998 58.3894C189.779 58.4991 189.559 58.8283 189.449 59.1575C189.34 59.4867 189.23 60.0354 189.34 60.6938C189.34 61.1328 189.449 61.5717 189.669 61.7912C189.888 62.0106 189.998 62.2301 190.327 62.3398C190.547 62.4496 190.876 62.5593 191.205 62.5593C191.315 62.5593 191.534 62.5593 191.754 62.5593C191.973 62.5593 192.193 62.4496 192.303 62.4496C192.412 62.4496 192.632 62.3398 192.741 62.3398L192.961 63.108C192.851 63.2177 192.632 63.3274 192.412 63.4372C192.193 63.5469 191.973 63.5469 191.644 63.6566C190.986 63.6566 190.766 63.6566 190.547 63.6566Z" fill="#1D1D1B"/>
<path d="M194.168 63.5469V57.4017H195.265L195.375 58.1699L195.485 58.6088V63.5469H194.168V63.5469ZM195.375 59.0477L195.265 58.1699C195.265 58.0601 195.485 57.9504 195.595 57.8407C195.704 57.7309 196.033 57.6212 196.253 57.5115C196.472 57.4017 196.692 57.4017 197.021 57.4017C197.131 57.4017 197.241 57.4017 197.35 57.4017C197.46 57.4017 197.57 57.4017 197.57 57.5115V58.7185C197.46 58.7185 197.46 58.6088 197.35 58.6088C197.241 58.6088 197.021 58.6088 196.802 58.6088C196.582 58.6088 196.363 58.6088 196.143 58.7185C195.924 58.8283 195.814 58.8283 195.704 58.938C195.595 58.938 195.485 58.938 195.375 59.0477Z" fill="#1D1D1B"/>
<path d="M200.972 66.4C200.203 66.4 199.545 66.2903 198.996 65.9611C198.557 65.6319 198.338 65.1929 198.338 64.6443C198.338 64.4248 198.338 64.2053 198.557 63.9858C198.667 63.7664 198.777 63.6566 198.996 63.5469C199.106 63.4372 199.325 63.3274 199.435 63.2177L200.203 63.3274C200.094 63.4372 200.094 63.4372 199.984 63.5469C199.874 63.6566 199.764 63.7664 199.764 63.8761C199.655 63.9858 199.655 64.2053 199.655 64.4248C199.655 64.6443 199.655 64.8637 199.764 65.0832C199.874 65.3027 199.984 65.4124 200.203 65.5221C200.423 65.6319 200.642 65.6319 201.081 65.6319C201.41 65.6319 201.74 65.6319 201.959 65.5221C202.179 65.4124 202.398 65.3027 202.618 65.1929C202.837 65.0832 202.837 64.8637 202.837 64.6443C202.837 64.4248 202.837 64.2053 202.727 64.0956C202.618 63.9859 202.398 63.7664 202.179 63.7664C201.959 63.6566 201.63 63.6566 201.191 63.6566H200.533C200.313 63.6566 200.094 63.6566 199.984 63.6566C199.874 63.6566 199.655 63.6566 199.545 63.5469C199.545 63.5469 199.435 63.5469 199.435 63.4372C199.435 63.4372 199.325 63.4372 199.325 63.3274C198.996 63.2177 198.887 63.108 198.777 62.8885C198.667 62.669 198.667 62.5593 198.667 62.3398C198.667 62.2301 198.667 62.0106 198.777 61.9009C198.887 61.7912 198.996 61.5717 199.106 61.462C199.216 61.3522 199.435 61.2425 199.545 61.1328L200.313 61.3522C200.203 61.3522 200.094 61.462 199.984 61.5717C199.874 61.6814 199.874 61.7912 199.874 62.0106C199.874 62.2301 199.874 62.3398 199.984 62.4496C200.094 62.5593 200.313 62.5593 200.533 62.5593H201.63C202.069 62.5593 202.508 62.5593 202.837 62.669C203.166 62.7788 203.386 62.8885 203.495 63.108C203.605 63.3274 203.715 63.4372 203.825 63.6566C203.934 63.8761 203.934 64.0956 203.934 64.315C203.934 64.6443 203.825 64.9735 203.715 65.1929C203.605 65.4124 203.386 65.6319 203.056 65.8513C202.727 66.0708 202.508 66.1805 202.069 66.2903C201.74 66.2903 201.41 66.4 200.972 66.4ZM200.972 61.462C200.533 61.462 200.094 61.3522 199.764 61.2425C199.435 61.023 199.106 60.8036 198.887 60.4743C198.667 60.1451 198.557 59.8159 198.557 59.377C198.557 58.9381 198.667 58.4991 198.887 58.1699C199.106 57.8407 199.435 57.6213 199.764 57.5115C200.094 57.4018 200.533 57.2921 200.972 57.2921C201.41 57.2921 201.849 57.4018 202.179 57.5115C202.508 57.6213 202.837 57.8407 203.056 58.1699C203.276 58.4991 203.386 58.8283 203.386 59.377C203.386 59.8159 203.276 60.2549 203.056 60.4743C202.837 60.8036 202.508 61.023 202.179 61.1328C201.849 61.462 201.41 61.462 200.972 61.462ZM200.972 60.6938C201.301 60.6938 201.63 60.5841 201.849 60.4743C202.069 60.3646 202.179 60.0354 202.179 59.4867C202.179 59.0478 202.069 58.7186 201.849 58.6089C201.63 58.3894 201.41 58.2797 200.972 58.2797C200.752 58.2797 200.533 58.2797 200.313 58.3894C200.094 58.4991 199.984 58.6089 199.874 58.7186C199.764 58.8283 199.655 59.1575 199.655 59.4867C199.655 59.8159 199.764 60.1451 199.984 60.3646C200.203 60.5841 200.533 60.6938 200.972 60.6938ZM202.727 58.3894L202.398 57.8407C202.508 57.731 202.618 57.6213 202.837 57.5115C203.056 57.4018 203.386 57.2921 203.605 57.2921H204.264V58.2797H202.727V58.3894Z" fill="#1D1D1B"/>
<path d="M207.665 63.6566C206.787 63.6566 206.129 63.3274 205.58 62.7788C205.141 62.2301 204.812 61.462 204.812 60.4743C204.812 59.9257 204.922 59.377 205.141 58.8283C205.361 58.2797 205.69 57.9505 206.129 57.731C206.568 57.4018 207.007 57.2921 207.665 57.2921C207.995 57.2921 208.214 57.2921 208.543 57.4018C208.763 57.5115 209.092 57.6213 209.311 57.8407C209.531 58.0602 209.641 58.2797 209.86 58.6089C209.97 58.9381 210.079 59.2673 210.079 59.5965C210.079 59.8159 210.079 60.0354 210.079 60.2549C210.079 60.4744 210.079 60.5841 210.079 60.6938H205.69L205.8 59.9257H208.872C208.872 59.5965 208.872 59.377 208.872 59.0478C208.872 58.8283 208.653 58.6089 208.543 58.3894C208.433 58.1699 208.104 58.1699 207.775 58.1699C207.446 58.1699 207.226 58.2797 207.007 58.3894C206.787 58.4991 206.568 58.8283 206.458 59.1575C206.349 59.4867 206.239 60.0354 206.349 60.6938C206.349 61.1328 206.458 61.5717 206.678 61.7912C206.897 62.0106 207.007 62.2301 207.336 62.3398C207.556 62.4496 207.885 62.5593 208.214 62.5593C208.324 62.5593 208.543 62.5593 208.763 62.5593C208.982 62.5593 209.202 62.4496 209.311 62.4496C209.421 62.4496 209.641 62.3398 209.75 62.3398L209.97 63.108C209.86 63.2177 209.641 63.3274 209.421 63.4372C209.202 63.5469 208.982 63.5469 208.653 63.6566C208.214 63.6566 207.885 63.6566 207.665 63.6566Z" fill="#1D1D1B"/>
<path d="M211.067 63.2177L211.287 62.2301C211.396 62.2301 211.506 62.3398 211.616 62.3398C211.835 62.4496 212.055 62.4496 212.274 62.5593C212.494 62.669 212.823 62.669 213.042 62.669C213.372 62.669 213.701 62.5593 213.81 62.4496C214.03 62.3398 214.14 62.1204 214.14 61.9009C214.14 61.7912 214.14 61.5717 213.92 61.462C213.81 61.3522 213.701 61.2425 213.481 61.1327C213.262 61.023 213.042 60.9133 212.823 60.8035C212.494 60.6938 212.164 60.4743 211.945 60.3646C211.725 60.2549 211.506 59.9257 211.396 59.7062C211.287 59.4867 211.177 59.1575 211.177 58.8283C211.177 58.4991 211.287 58.1699 211.506 57.9504C211.725 57.731 211.945 57.5115 212.274 57.4018C212.603 57.292 213.042 57.1823 213.372 57.1823C213.81 57.1823 214.14 57.1823 214.359 57.292C214.688 57.4018 214.798 57.4018 214.908 57.5115L214.688 58.4991C214.579 58.4991 214.469 58.3894 214.359 58.3894C214.249 58.3894 214.03 58.2797 213.92 58.2797C213.701 58.2797 213.591 58.2797 213.372 58.2797C213.042 58.2797 212.713 58.2797 212.494 58.3894C212.274 58.4991 212.164 58.6089 212.164 58.8283C212.164 59.0478 212.274 59.2673 212.494 59.377C212.713 59.4867 212.933 59.5965 213.152 59.8159C213.481 60.0354 213.92 60.1451 214.14 60.3646C214.469 60.5841 214.688 60.6938 214.908 61.023C215.127 61.2425 215.127 61.5717 215.127 61.9009C215.127 62.4496 214.908 62.8885 214.579 63.2177C214.14 63.5469 213.591 63.6566 212.933 63.6566C212.603 63.6566 212.384 63.6566 212.055 63.5469C211.835 63.5469 211.506 63.4372 211.396 63.3274C211.396 63.3274 211.177 63.3274 211.067 63.2177Z" fill="#1D1D1B"/>
<path d="M216.225 60.5841C216.225 59.9257 216.334 59.377 216.554 58.9381C216.773 58.4991 217.102 58.0602 217.541 57.731C217.98 57.4018 218.529 57.2921 219.187 57.2921C219.626 57.2921 219.956 57.2921 220.175 57.4018C220.395 57.5115 220.614 57.5115 220.724 57.6213L220.504 58.6089C220.395 58.4991 220.175 58.3894 219.956 58.3894C219.736 58.3894 219.517 58.2797 219.187 58.2797C218.858 58.2797 218.639 58.3894 218.419 58.4991C218.2 58.6089 217.98 58.8283 217.761 59.1575C217.541 59.4867 217.541 59.8159 217.432 60.3646C217.432 60.9133 217.432 61.3522 217.651 61.6814C217.871 62.0106 217.98 62.3398 218.31 62.4496C218.529 62.669 218.858 62.669 219.187 62.669C219.517 62.669 219.736 62.669 220.065 62.5593C220.285 62.4496 220.504 62.4496 220.614 62.3398L220.833 63.108C220.614 63.3274 220.395 63.4372 220.065 63.5469C219.736 63.6566 219.407 63.6566 218.968 63.6566C218.419 63.6566 217.871 63.5469 217.432 63.2177C216.993 62.8885 216.664 62.5593 216.554 62.1204C216.444 61.6814 216.225 61.1328 216.225 60.5841Z" fill="#1D1D1B"/>
<path d="M222.15 63.5469V54.5486H223.467V57.1823L223.357 58.2796L223.248 58.1699C223.357 58.0601 223.577 57.9504 223.796 57.8407C224.016 57.7309 224.235 57.6212 224.564 57.5115C224.784 57.4017 225.113 57.4017 225.333 57.4017C225.991 57.4017 226.54 57.6212 226.759 57.9504C227.088 58.3893 227.198 58.938 227.198 59.9256V63.6566H225.881V59.9256C225.881 59.377 225.771 59.0478 225.662 58.8283C225.552 58.6088 225.223 58.4991 224.784 58.4991C224.564 58.4991 224.345 58.4991 224.125 58.6088C223.906 58.7186 223.577 58.8283 223.357 59.0477V63.6566H222.15V63.5469Z" fill="#1D1D1B"/>
<path d="M234.331 63.6566C233.563 63.6566 232.904 63.5468 232.356 63.1079C231.807 62.7787 231.368 62.23 231.039 61.5716C230.71 60.9132 230.6 60.1451 230.6 59.3769C230.6 58.4991 230.819 57.7309 231.148 57.0725C231.478 56.4141 231.917 55.9752 232.575 55.646C233.124 55.3168 233.782 55.207 234.44 55.207C235.209 55.207 235.757 55.4265 236.306 55.7557C236.855 56.0849 237.294 56.6336 237.513 57.1823C237.842 57.8407 237.952 58.4991 237.952 59.3769C237.952 60.2548 237.733 61.023 237.403 61.6814C237.074 62.3398 236.635 62.7787 236.087 63.1079C235.648 63.5468 234.989 63.6566 234.331 63.6566ZM234.331 62.669C235.099 62.669 235.648 62.3398 236.087 61.7911C236.525 61.2424 236.745 60.4743 236.745 59.3769C236.745 58.8283 236.635 58.2796 236.525 57.8407C236.416 57.4017 236.087 56.9628 235.757 56.7433C235.428 56.5238 234.989 56.3044 234.44 56.3044C234.002 56.3044 233.563 56.4141 233.233 56.6336C232.904 56.853 232.575 57.1823 232.356 57.7309C232.136 58.1699 232.026 58.8283 232.026 59.5964C232.026 60.1451 232.136 60.6937 232.246 61.1327C232.356 61.5716 232.685 62.0106 233.014 62.3398C233.343 62.669 233.782 62.669 234.331 62.669Z" fill="#1D1D1B"/>
<path d="M239.488 63.5469V57.4018H240.586V58.0602C240.695 57.9505 240.915 57.8407 241.134 57.731C241.354 57.6213 241.573 57.5115 241.902 57.4018C242.122 57.2921 242.451 57.2921 242.671 57.2921C243.329 57.2921 243.768 57.4018 244.097 57.8407C244.426 58.2797 244.536 58.8283 244.536 59.7062V63.5469H243.219V59.8159C243.219 59.2673 243.109 58.9381 243 58.7186C242.89 58.4991 242.561 58.3894 242.122 58.3894C242.012 58.3894 241.793 58.3894 241.683 58.4991C241.463 58.4991 241.354 58.6089 241.134 58.7186C240.915 58.8283 240.805 58.9381 240.586 59.0478V63.6566H239.488V63.5469Z" fill="#1D1D1B"/>
<path d="M246.511 63.5469V54.5486H247.828V63.5469H246.511Z" fill="#1D1D1B"/>
<path d="M250.352 56.4141C250.132 56.4141 249.913 56.3044 249.803 56.1947C249.694 56.0849 249.584 55.8655 249.584 55.646C249.584 55.5363 249.584 55.3168 249.694 55.2071C249.803 55.0973 249.913 54.9876 250.023 54.8779C250.132 54.7681 250.352 54.7681 250.462 54.7681C250.681 54.7681 250.901 54.8779 251.01 54.9876C251.12 55.0973 251.23 55.3168 251.23 55.5363C251.23 55.7557 251.12 55.9752 251.01 56.1947C250.901 56.4141 250.571 56.4141 250.352 56.4141ZM249.803 63.5469V57.4017H251.12V63.5469H249.803Z" fill="#1D1D1B"/>
<path d="M252.986 63.5469V57.4018H254.083V58.0602C254.193 57.9505 254.412 57.8407 254.632 57.731C254.851 57.6213 255.071 57.5115 255.4 57.4018C255.619 57.2921 255.948 57.2921 256.168 57.2921C256.826 57.2921 257.265 57.4018 257.594 57.8407C257.924 58.2797 258.033 58.8283 258.033 59.7062V63.5469H256.717V59.8159C256.717 59.2673 256.607 58.9381 256.497 58.7186C256.387 58.4991 256.058 58.3894 255.619 58.3894C255.509 58.3894 255.29 58.3894 255.18 58.4991C254.961 58.4991 254.851 58.6089 254.632 58.7186C254.412 58.8283 254.302 58.9381 254.083 59.0478V63.6566H252.986V63.5469Z" fill="#1D1D1B"/>
<path d="M262.313 63.6566C261.435 63.6566 260.777 63.3274 260.228 62.7788C259.789 62.2301 259.46 61.462 259.46 60.4743C259.46 59.9257 259.57 59.377 259.789 58.8283C260.009 58.2797 260.338 57.9505 260.777 57.731C261.216 57.4018 261.655 57.2921 262.313 57.2921C262.642 57.2921 262.862 57.2921 263.191 57.4018C263.41 57.5115 263.74 57.6213 263.959 57.8407C264.178 58.0602 264.288 58.2797 264.508 58.6089C264.617 58.9381 264.727 59.2673 264.727 59.5965C264.727 59.8159 264.727 60.0354 264.727 60.2549C264.727 60.4744 264.727 60.5841 264.727 60.6938H260.448L260.557 59.9257H263.63C263.63 59.5965 263.63 59.377 263.63 59.0478C263.63 58.8283 263.41 58.6089 263.301 58.3894C263.191 58.1699 262.862 58.1699 262.532 58.1699C262.203 58.1699 261.984 58.2797 261.764 58.3894C261.545 58.4991 261.325 58.8283 261.216 59.1575C261.106 59.4867 260.996 60.0354 261.106 60.6938C261.106 61.1328 261.216 61.5717 261.435 61.7912C261.655 62.0106 261.764 62.2301 262.094 62.3398C262.313 62.4496 262.642 62.5593 262.971 62.5593C263.081 62.5593 263.301 62.5593 263.52 62.5593C263.74 62.5593 263.959 62.4496 264.069 62.4496C264.178 62.4496 264.398 62.3398 264.508 62.3398L264.727 63.108C264.617 63.2177 264.398 63.3274 264.178 63.4372C263.959 63.5469 263.74 63.5469 263.41 63.6566C262.862 63.6566 262.642 63.6566 262.313 63.6566Z" fill="#1D1D1B"/>
<path d="M217 49H118" stroke="#F29CA6" stroke-width="0.4935" stroke-miterlimit="10"/>
</svg>
